<svg xmlns="http://www.w3.org/2000/svg" xmlns:xlink="http://www.w3.org/1999/xlink" preserveAspectRatio="xMidYMid" width="100" height="14" viewBox="0 0 100 14">
  <defs>
    <style>

      .cls-2 {
        fill: #3471c0;
      }
    </style>
  </defs>
  <path d="M97.082,11.250 C97.082,11.250 95.622,11.250 95.622,11.250 C95.622,11.250 95.620,11.250 95.620,11.250 C94.006,11.248 92.701,9.988 92.701,8.439 C92.701,7.026 93.785,5.854 95.194,5.651 C95.194,5.651 98.448,5.130 98.448,5.130 C98.241,4.597 97.709,4.218 97.082,4.218 C97.082,4.218 94.524,4.218 94.524,4.218 C94.326,4.218 94.161,4.058 94.161,3.865 C94.161,3.512 94.161,3.161 94.161,2.809 C95.377,2.809 95.864,2.809 97.081,2.809 C98.693,2.809 100.000,4.068 100.000,5.621 C100.000,5.621 100.000,8.439 100.000,8.439 C100.000,9.988 98.693,11.248 97.082,11.250 ZM98.541,6.558 C98.541,6.558 95.194,7.089 95.194,7.089 C94.596,7.269 94.161,7.805 94.161,8.439 C94.161,9.212 94.813,9.845 95.620,9.845 C95.620,9.845 97.082,9.845 97.082,9.845 C97.887,9.845 98.541,9.212 98.541,8.439 C98.541,8.439 98.541,6.558 98.541,6.558 ZM88.325,11.191 C86.707,11.191 85.402,9.930 85.402,8.379 C85.402,8.379 85.402,5.560 85.402,5.560 C85.402,4.007 86.707,2.748 88.325,2.748 C88.325,2.748 91.969,2.748 91.969,2.748 C91.969,2.748 91.969,3.804 91.969,3.804 C91.969,3.999 91.807,4.155 91.606,4.155 C91.606,4.155 88.319,4.155 88.319,4.155 C87.512,4.155 86.862,4.790 86.862,5.560 C86.862,5.560 86.862,8.379 86.862,8.379 C86.862,9.149 87.512,9.782 88.319,9.782 C88.319,9.782 91.606,9.782 91.606,9.782 C91.807,9.782 91.969,9.940 91.969,10.134 C91.969,10.134 91.969,10.838 91.969,10.838 C91.969,11.031 91.807,11.191 91.606,11.191 C91.606,11.191 88.325,11.191 88.325,11.191 ZM81.027,11.191 C79.409,11.191 78.104,9.930 78.104,8.379 C78.104,8.379 78.104,5.560 78.104,5.560 C78.104,4.007 79.409,2.748 81.027,2.748 C81.027,2.748 84.670,2.748 84.670,2.748 C84.670,2.748 84.670,3.804 84.670,3.804 C84.670,3.999 84.510,4.155 84.308,4.155 C84.308,4.155 81.022,4.155 81.022,4.155 C80.214,4.155 79.564,4.790 79.564,5.560 C79.564,5.560 79.564,8.379 79.564,8.379 C79.564,9.149 80.214,9.782 81.022,9.782 C81.022,9.782 84.308,9.782 84.308,9.782 C84.510,9.782 84.670,9.940 84.670,10.134 C84.670,10.134 84.670,10.838 84.670,10.838 C84.670,11.031 84.510,11.191 84.308,11.191 C84.308,11.191 81.027,11.191 81.027,11.191 ZM74.448,11.250 C74.448,11.250 72.994,11.250 72.994,11.250 C71.378,11.250 70.072,9.990 70.072,8.439 C70.072,8.439 70.072,2.815 70.072,2.815 C70.072,2.815 71.169,2.815 71.169,2.815 C71.368,2.815 71.534,2.973 71.534,3.166 C71.534,3.166 71.534,8.439 71.534,8.439 C71.534,9.212 72.185,9.845 72.994,9.845 C72.994,9.845 74.448,9.845 74.448,9.845 C75.258,9.845 75.908,9.212 75.908,8.439 C75.908,8.439 75.908,3.166 75.908,3.166 C75.908,2.973 76.074,2.815 76.273,2.815 C76.273,2.815 77.004,2.815 77.004,2.815 C77.205,2.815 77.371,2.973 77.371,3.166 C77.371,3.166 77.371,8.439 77.371,8.439 C77.371,9.990 76.064,11.250 74.448,11.250 ZM68.601,11.250 C66.993,11.243 65.692,9.984 65.692,8.439 C65.692,8.439 65.692,-0.002 65.692,-0.002 C65.692,-0.002 66.788,-0.002 66.788,-0.002 C66.989,-0.002 67.154,0.156 67.154,0.351 C67.154,0.351 67.154,8.439 67.154,8.439 C67.154,9.212 67.806,9.845 68.610,9.845 C68.610,9.845 68.978,9.845 68.978,9.845 C69.178,9.845 69.339,10.003 69.339,10.195 C69.339,10.195 69.339,10.897 69.339,10.897 C69.339,11.089 69.178,11.250 68.978,11.250 C68.978,11.250 68.601,11.250 68.601,11.250 ZM59.212,8.926 C59.419,9.461 59.953,9.845 60.580,9.845 C60.580,9.845 63.136,9.845 63.136,9.845 C63.341,9.845 63.502,10.003 63.502,10.195 C63.502,10.544 63.502,10.897 63.502,11.250 C62.288,11.250 61.798,11.250 60.583,11.250 C58.970,11.250 57.663,9.990 57.663,8.439 C57.663,8.439 57.663,5.621 57.663,5.621 C57.663,4.072 58.969,2.813 60.580,2.809 C60.580,2.809 62.043,2.809 62.043,2.809 C62.043,2.809 62.045,2.809 62.045,2.809 C63.658,2.813 64.961,4.072 64.961,5.621 C64.961,7.036 63.880,8.206 62.470,8.407 C62.470,8.407 59.212,8.926 59.212,8.926 ZM62.045,4.218 C62.045,4.218 60.580,4.218 60.580,4.218 C59.774,4.218 59.124,4.849 59.124,5.621 C59.124,5.621 59.124,7.501 59.124,7.501 C59.124,7.501 62.470,6.969 62.470,6.969 C63.070,6.789 63.502,6.254 63.502,5.621 C63.502,4.849 62.851,4.218 62.045,4.218 ZM54.011,11.250 C54.011,11.250 52.554,11.250 52.554,11.250 C50.949,11.250 49.638,9.983 49.638,8.436 C49.638,8.436 49.638,5.621 49.638,5.621 C49.638,4.078 50.949,2.809 52.554,2.809 C52.554,2.809 54.746,2.809 54.746,2.809 C54.746,2.809 54.746,3.865 54.746,3.865 C54.746,4.058 54.582,4.218 54.381,4.218 C54.381,4.218 52.554,4.218 52.554,4.218 C51.750,4.218 51.092,4.849 51.092,5.621 C51.092,5.621 51.092,8.436 51.092,8.436 C51.092,9.208 51.750,9.845 52.554,9.845 C52.554,9.845 54.011,9.845 54.011,9.845 C54.818,9.845 55.473,9.208 55.473,8.436 C55.473,8.436 55.473,-0.002 55.473,-0.002 C55.473,-0.002 56.568,-0.002 56.568,-0.002 C56.770,-0.002 56.936,0.156 56.936,0.351 C56.936,0.351 56.936,8.436 56.936,8.436 C56.936,9.983 55.619,11.250 54.011,11.250 ZM45.995,11.191 C45.995,11.191 44.532,11.191 44.532,11.191 C44.532,11.191 44.528,11.191 44.528,11.191 C42.916,11.185 41.612,9.927 41.612,8.379 C41.612,6.963 42.693,5.791 44.103,5.593 C44.103,5.593 47.360,5.072 47.360,5.072 C47.152,4.536 46.621,4.155 45.995,4.155 C45.995,4.155 43.437,4.155 43.437,4.155 C43.233,4.155 43.071,3.999 43.071,3.804 C43.071,3.456 43.071,3.101 43.071,2.748 C44.286,2.748 44.775,2.748 45.989,2.748 C47.604,2.748 48.909,4.007 48.909,5.560 C48.909,5.560 48.909,8.379 48.909,8.379 C48.909,9.927 47.607,11.185 45.995,11.191 ZM47.453,6.499 C47.453,6.499 44.103,7.032 44.103,7.032 C43.506,7.211 43.071,7.744 43.071,8.379 C43.071,9.149 43.721,9.782 44.528,9.782 C44.528,9.782 45.995,9.782 45.995,9.782 C46.802,9.782 47.453,9.149 47.453,8.379 C47.453,8.379 47.453,6.499 47.453,6.499 ZM39.785,11.167 C39.585,11.167 39.420,11.008 39.420,10.816 C39.420,10.816 39.420,2.732 39.420,2.732 C39.420,2.732 40.515,2.732 40.515,2.732 C40.718,2.732 40.879,2.892 40.879,3.084 C40.879,3.084 40.879,10.816 40.879,10.816 C40.879,11.008 40.718,11.167 40.515,11.167 C40.515,11.167 39.785,11.167 39.785,11.167 ZM39.420,2.030 C39.420,2.030 39.420,0.976 39.420,0.976 C39.420,0.779 39.585,0.623 39.785,0.623 C39.785,0.623 40.515,0.623 40.515,0.623 C40.718,0.623 40.879,0.779 40.879,0.976 C40.879,0.976 40.879,1.677 40.879,1.677 C40.879,1.870 40.718,2.030 40.515,2.030 C40.515,2.030 39.420,2.030 39.420,2.030 ZM35.044,11.191 C33.430,11.191 32.121,9.930 32.121,8.379 C32.121,8.379 32.121,5.560 32.121,5.560 C32.121,4.007 33.430,2.748 35.044,2.748 C35.044,2.748 38.688,2.748 38.688,2.748 C38.688,2.748 38.688,3.804 38.688,3.804 C38.688,3.999 38.527,4.155 38.326,4.155 C38.326,4.155 35.039,4.155 35.039,4.155 C34.233,4.155 33.581,4.790 33.581,5.560 C33.581,5.560 33.581,8.379 33.581,8.379 C33.581,9.149 34.233,9.782 35.039,9.782 C35.039,9.782 38.326,9.782 38.326,9.782 C38.527,9.782 38.688,9.940 38.688,10.134 C38.688,10.134 38.688,10.838 38.688,10.838 C38.688,11.031 38.527,11.191 38.326,11.191 C38.326,11.191 35.044,11.191 35.044,11.191 ZM29.925,10.897 C29.925,10.897 29.925,5.625 29.925,5.625 C29.925,4.853 29.274,4.218 28.465,4.218 C28.465,4.218 27.010,4.218 27.010,4.218 C26.203,4.218 25.549,4.853 25.549,5.625 C25.549,5.625 25.549,10.897 25.549,10.897 C25.549,11.089 25.385,11.248 25.186,11.248 C25.186,11.248 24.455,11.248 24.455,11.248 C24.254,11.248 24.087,11.089 24.087,10.897 C24.087,10.897 24.087,5.625 24.087,5.625 C24.087,4.072 25.394,2.815 27.010,2.815 C27.010,2.815 28.465,2.815 28.465,2.815 C30.081,2.815 31.388,4.072 31.388,5.625 C31.388,5.625 31.388,11.248 31.388,11.248 C31.388,11.248 30.290,11.248 30.290,11.248 C30.092,11.248 29.925,11.089 29.925,10.897 ZM17.614,8.867 C17.820,9.403 18.350,9.782 18.977,9.782 C18.977,9.782 21.537,9.782 21.537,9.782 C21.737,9.782 21.900,9.940 21.900,10.134 C21.900,10.485 21.900,10.838 21.900,11.191 C20.684,11.191 20.197,11.191 18.980,11.191 C17.367,11.191 16.061,9.930 16.061,8.379 C16.061,8.379 16.061,5.560 16.061,5.560 C16.061,4.011 17.367,2.752 18.977,2.748 C18.977,2.748 20.440,2.748 20.440,2.748 C22.052,2.752 23.359,4.011 23.359,5.560 C23.359,6.974 22.280,8.145 20.869,8.348 C20.869,8.348 17.614,8.867 17.614,8.867 ZM20.440,4.155 C20.440,4.155 18.977,4.155 18.977,4.155 C18.174,4.155 17.521,4.790 17.521,5.560 C17.521,5.560 17.521,7.440 17.521,7.440 C17.521,7.440 20.869,6.908 20.869,6.908 C21.467,6.732 21.899,6.197 21.899,5.560 C21.899,4.790 21.246,4.155 20.440,4.155 ZM17.521,2.030 C17.521,2.030 17.521,0.976 17.521,0.976 C17.521,0.781 17.687,0.623 17.889,0.623 C17.889,0.623 21.537,0.623 21.537,0.623 C21.737,0.623 21.899,0.781 21.899,0.976 C21.899,0.976 21.899,1.677 21.899,1.677 C21.899,1.870 21.737,2.030 21.537,2.030 C21.537,2.030 17.521,2.030 17.521,2.030 ZM12.409,14.001 C12.409,14.001 9.855,14.001 9.855,14.001 C9.656,14.001 9.491,13.845 9.491,13.648 C9.491,13.648 9.491,12.945 9.491,12.945 C9.491,12.752 9.656,12.592 9.855,12.592 C9.855,12.592 12.413,12.592 12.413,12.592 C13.218,12.592 13.871,11.965 13.871,11.191 C13.871,11.191 13.871,5.560 13.871,5.560 C13.871,4.790 13.212,4.155 12.409,4.155 C12.409,4.155 10.951,4.155 10.951,4.155 C10.149,4.155 9.491,4.790 9.491,5.560 C9.491,5.560 9.491,8.379 9.491,8.379 C9.491,9.149 10.149,9.782 10.951,9.782 C10.951,9.782 12.775,9.782 12.775,9.782 C12.975,9.782 13.140,9.940 13.140,10.134 C13.140,10.134 13.140,11.191 13.140,11.191 C13.140,11.191 10.951,11.191 10.951,11.191 C9.346,11.191 8.032,9.921 8.032,8.379 C8.032,8.379 8.032,5.560 8.032,5.560 C8.032,4.017 9.346,2.748 10.951,2.748 C10.951,2.748 12.409,2.748 12.409,2.748 C14.016,2.748 15.327,4.017 15.327,5.560 C15.327,5.560 15.327,11.191 15.327,11.191 C15.327,12.744 14.022,14.001 12.409,14.001 ZM4.384,11.191 C4.384,11.191 2.918,11.191 2.918,11.191 C1.307,11.185 0.000,9.927 0.000,8.379 C0.000,6.963 1.080,5.791 2.490,5.593 C2.490,5.593 5.747,5.072 5.747,5.072 C5.543,4.536 5.010,4.155 4.384,4.155 C4.384,4.155 1.825,4.155 1.825,4.155 C1.623,4.155 1.460,3.999 1.460,3.804 C1.460,3.456 1.460,3.101 1.460,2.748 C2.676,2.748 3.161,2.748 4.380,2.748 C5.993,2.748 7.302,4.007 7.302,5.560 C7.302,5.560 7.302,8.379 7.302,8.379 C7.302,9.927 5.993,11.185 4.384,11.191 ZM5.840,6.499 C5.840,6.499 2.490,7.032 2.490,7.032 C1.893,7.211 1.461,7.744 1.461,8.379 C1.461,9.149 2.113,9.782 2.918,9.782 C2.918,9.782 4.384,9.782 4.384,9.782 C5.188,9.782 5.840,9.149 5.840,8.379 C5.840,8.379 5.840,6.499 5.840,6.499 Z" id="path-1" class="cls-2" fill-rule="evenodd"/>
</svg>
