<?xml version="1.0" encoding="utf-8"?>
<!-- Generator: Adobe Illustrator 18.1.1, SVG Export Plug-In . SVG Version: 6.00 Build 0)  -->
<svg version="1.1" id="Layer_1" xmlns="http://www.w3.org/2000/svg" xmlns:xlink="http://www.w3.org/1999/xlink" x="0px" y="0px"
	 viewBox="0 111 960 322.2" enable-background="new 0 111 960 322.2" xml:space="preserve">
<g>
	<g>
		<path fill="#FFFFFF" d="M354.9,267.7v134.4c0,9.9-2.5,13.4-12.1,17.5c-12.5,5.1-30.6,10.5-59.6,10.5c-43.6,0-63.2-23-63.2-62.1
			V267.6c0-4.5,1.3-5.7,5.7-5.7h9.9c4.5,0,5.7,1.3,5.7,5.7v99.5c0,28.7,13.7,43.6,44.7,43.6c18.2,0,31.9-3.2,41.5-7
			c5.1-2.3,5.7-4.8,5.7-8.9V267.7c0-4.5,1.6-5.7,5.7-5.7H349C352.9,262,354.9,263.2,354.9,267.7z"/>
		<path fill="#FFFFFF" d="M484.6,195.6v8.3c0,4.5-1.3,6.1-5.7,6.1c-34.4,0-45.6,9.9-45.6,44v8h46.3c4.5,0,5.7,1.3,5.7,5.7v8.3
			c0,4.1-1.3,5.7-5.7,5.7h-46.3v138.3c0,4.5-1.3,5.7-5.7,5.7h-9.9c-4.1,0-5.7-1.3-5.7-5.7V281.7h-28.3c-4.5,0-5.7-1.6-5.7-5.7v-8.3
			c0-4.5,1.3-5.7,5.7-5.7H412v-8c0-45.6,18.5-63.4,64.4-64.1h2.5C483.4,189.9,484.6,191.2,484.6,195.6z"/>
		<path fill="#FFFFFF" d="M587.3,257.2c4.5,0,5.7,1.6,5.7,5.7v8.3c0,4.1-1.3,5.7-5.7,5.7h-10.5c-18.2,0-32.6,3.2-42,6.7
			c-5.1,2.3-5.4,4.8-5.4,8.3v128.2c0,4.5-1.6,5.7-5.7,5.7h-10.2c-4.1,0-5.7-1.3-5.7-5.7V284.8c0-9.9,2.5-13.7,12.1-17.8
			c11.8-4.5,29.9-9.3,57.7-9.9h9.7V257.2z"/>
		<path fill="#FFFFFF" d="M638.9,267.7v152.4c0,4.5-1.6,5.7-5.7,5.7h-10.2c-4.1,0-5.7-1.3-5.7-5.7V267.7c0-4.5,1.6-5.7,5.7-5.7h10.2
			C637.3,262,638.9,263.2,638.9,267.7z"/>
		<path fill="#FFFFFF" d="M745.6,257.2c44,0,70.5,22.3,70.5,58.6v56.1c0,36.3-26.5,58.4-70.5,58.4c-43.4,0-69.8-22-69.8-58.4v-56.1
			C675.8,279.5,702.3,257.2,745.6,257.2z M745.6,276.6c-29.4,0-48.4,14.6-48.4,39.2v56.1c0,24.2,19.1,38.8,48.4,38.8
			c29.9,0,48.8-14.6,48.8-38.8v-56.1C794.4,291.2,775.7,276.6,745.6,276.6z"/>
		<path fill="#FFFFFF" d="M26.9,247.7v171.7c0,4.8,1.6,6.4,6.4,6.4h67.3c59.3,0,92.4-32.2,92.4-84.2v-58c0-52-33.1-84.2-92.4-84.2
			H10.4c-4.8,0-6.4,1.6-6.4,6.4v10.5c0,2.6,2.2,4.7,4.7,4.7h57.7h34.2c44.7,0,69.2,22.6,69.2,62.5v58.1c0,39.9-24.6,62.5-69.2,62.5
			H49.9V247.6c0-2.6-2.2-4.7-4.7-4.7H31.6C29,242.9,26.9,245.1,26.9,247.7z"/>
	</g>
	<g>
		<path fill="#FFFFFF" d="M880.2,121.8c0-6.1-4.3-8.6-9.6-5.5l-39.1,22.5c-5.3,3.1-5.3,8,0,11.1l39.2,22.6c5.3,3.1,9.6,0.6,9.6-5.5
			v-45.2H880.2z"/>
		<path fill="#FFFFFF" d="M901.5,116.3c-5.3-3.1-9.6-0.6-9.6,5.5V167c0,6.1,4.3,8.6,9.6,5.5l39.2-22.6c5.3-3.1,5.3-8,0-11.1
			L901.5,116.3z"/>
		<path fill="#FFFFFF" d="M864.9,193.7c5.3-3.1,5.3-8,0-11.1L825.7,160c-5.3-3.1-9.6-0.6-9.6,5.5v45.2c0,6.1,4.3,8.6,9.6,5.5
			L864.9,193.7z"/>
		<path fill="#FFFFFF" d="M880.2,209.4c0-6.1-4.3-8.6-9.6-5.5l-39.2,22.6c-5.3,3.1-5.3,8,0,11.1l39.2,22.6c5.3,3.1,9.6,0.6,9.6-5.5
			V209.4z"/>
		<path fill="#FFFFFF" d="M907.5,182.7c-5.3,3.1-5.3,8,0,11.1l39.1,22.5c5.3,3.1,9.6,0.6,9.6-5.5v-45.1c0-6.1-4.3-8.6-9.6-5.5
			L907.5,182.7z"/>
		<path fill="#FFFFFF" d="M901.5,203.8c-5.3-3.1-9.6-0.6-9.6,5.5v45.2c0,6.1,4.3,8.6,9.6,5.5l39.2-22.6c5.3-3.1,5.3-8,0-11.1
			L901.5,203.8z"/>
	</g>
</g>
</svg>
